<svg xmlns="http://www.w3.org/2000/svg" viewBox="0 0 1920 1080"><style>.st0{fill:#3d5c6b}.st1{fill:#59d1a0}</style><path class="st0" d="M256.2 709.8H180v199.6h35.8v-69.9h40.4c17.2 0 32.4-6 45.2-18.3 13.2-12.3 19.8-27.8 19.8-46.4 0-19.2-6.6-34.9-19.8-47-13.2-12-28.3-18-45.2-18zm-1.7 97.3h-38.7v-65h38.7c16 0 31.2 11.7 31.2 32.6 0 20.7-15.2 32.4-31.2 32.4zM446.2 822h85.6v-32.3h-85.6v-47.6h91.3v-32.3H410.4v199.6h129.1V877h-93.3zM720.6 826.6h55.5v36.7c-12.9 11.4-28.9 17.2-47.8 17.2-20 0-36.9-6.6-50.4-20-13.5-13.5-20-30.3-20-50.7 0-20.3 6.6-37.2 20-50.7 13.5-13.5 30.4-20.3 50.4-20.3 20.3 0 36.9 6.6 50.4 19.5l23.8-21.8c-20-20-44.7-30.1-74.2-30.1s-54.7 9.7-75.3 29.5c-20.3 19.7-30.6 44.4-30.6 73.9s10.3 54.1 30.6 73.9c20.6 19.5 45.8 29.2 75.3 29.2 32.9 0 62.4-14.3 81.6-37.5v-80.5h-89.3v31.7zM1240.9 793.1l-11.7-4.6-10.3-4c-3.7-2-11.7-5.4-14.9-7.7-4.9-4.9-8.3-8.9-8.3-17.2 0-12.3 11.5-21.2 27.2-21.2 16 0 27.8 6 35.5 17.7l25.5-17.5c-13.8-21.5-34.4-32.4-61.6-32.4-17.5 0-32.1 4.9-44.1 14.9-11.7 10-17.7 22.9-17.7 38.9 0 16.9 5.4 29.8 16.9 39.2 11.5 9.2 22 14.3 40.4 21.2 14.9 5.4 20.9 8 29.2 13.8 8.3 5.4 11.4 11.5 11.4 20.3 0 12.9-8.9 26.1-33.8 26.1-23.2 0-39.8-10-50.1-30.4l-26.9 16.9c12.6 28.4 39.8 45.5 76.7 45.5 45.5 0 69.9-23.8 69.9-59 0-14.9-4.3-26.9-12.6-35.8-8.4-8.6-21.8-17-40.7-24.7zM1444.4 797.7l-51.3-87.9h-38.6l71.8 122.2v77.4h35.5V832l71.9-122.2h-38.4zM1727.4 818c-8.3-8.9-21.8-17.2-40.7-24.9l-11.7-4.6-10.3-4c-3.7-2-11.7-5.4-14.9-7.7-4.9-4.9-8.3-8.9-8.3-17.2 0-12.3 11.5-21.2 27.2-21.2 16 0 27.8 6 35.5 17.7l25.5-17.5c-13.8-21.5-34.4-32.4-61.6-32.4-17.5 0-32.1 4.9-44.1 14.9-11.7 10-17.7 22.9-17.7 38.9 0 16.9 5.4 29.8 16.9 39.2 11.5 9.2 22 14.3 40.4 21.2 14.9 5.4 20.9 8 29.2 13.8 8.3 5.4 11.5 11.5 11.5 20.3 0 12.9-8.9 26.1-33.8 26.1-23.2 0-39.8-10-50.1-30.4l-26.9 16.9c12.6 28.4 39.8 45.5 76.7 45.5 45.5 0 69.9-23.8 69.9-59-.1-14.7-4.4-26.7-12.7-35.6zM969.9 709.8l-83.3 199.6h37.7l28-69.3h-.5l33.3-81.4 33.2 81.4h-.5l28 69.3h37.7l-83.3-199.6zM633.8 384.4s60.1 97 203.6 98.9 318 33 380.1 98.9c0 0-79.5-110.5-225-133.8-145.4-23.3-255.9 11.6-358.7-64zM1155.4 582.2s-77.6-36.8-153.2-38.8S825.8 557 767.6 526c0 0 62.1 67.9 193.9 56.2 131.9-11.6 193.9 0 193.9 0z"/><path class="st1" d="M1144.3 175.4s-.4.3-1.1.8l1.1-.8zM935.4 337.4c-59.9-5.4-218.6-22.2-274.5-40.3-137.8-44.6-190.1-129.9-190.1-129.9C560 363.1 717.1 368.9 938.2 386.3c221.1 17.5 329.7 195.9 329.7 195.9-44.7-226-332.5-244.8-332.5-244.8z"/></svg>